<svg width="144" height="40" viewBox="0 0 144 40" fill="none" xmlns="http://www.w3.org/2000/svg">
<path d="M1.03516 38.0001V3.09099H8.41585V17.4944H23.3989V3.09099H30.7625V38.0001H23.3989V23.5797H8.41585V38.0001H1.03516ZM36.7113 38.0001V11.8183H43.9727V38.0001H36.7113ZM40.3591 8.44327C39.2795 8.44327 38.3533 8.08531 37.5807 7.36941C36.8193 6.64213 36.4387 5.77281 36.4387 4.76145C36.4387 3.76145 36.8193 2.90349 37.5807 2.18759C38.3533 1.46032 39.2795 1.09668 40.3591 1.09668C41.4387 1.09668 42.3591 1.46032 43.1205 2.18759C43.8931 2.90349 44.2795 3.76145 44.2795 4.76145C44.2795 5.77281 43.8931 6.64213 43.1205 7.36941C42.3591 8.08531 41.4387 8.44327 40.3591 8.44327Z" fill="#404040"/>
<path d="M57.0505 3.09099V38.0001H49.7891V3.09099H57.0505ZM62.8671 38.0001V11.8183H70.1285V38.0001H62.8671ZM66.5149 8.44327C65.4353 8.44327 64.5093 8.08531 63.7365 7.36941C62.9751 6.64213 62.5945 5.77281 62.5945 4.76145C62.5945 3.76145 62.9751 2.90349 63.7365 2.18759C64.5093 1.46032 65.4353 1.09668 66.5149 1.09668C67.5945 1.09668 68.5149 1.46032 69.2763 2.18759C70.0489 2.90349 70.4353 3.76145 70.4353 4.76145C70.4353 5.77281 70.0489 6.64213 69.2763 7.36941C68.5149 8.08531 67.5945 8.44327 66.5149 8.44327ZM83.2067 22.8637V38.0001H75.9453V11.8183H82.8657V16.4376H83.1725C83.7521 14.9149 84.7237 13.7103 86.0873 12.8239C87.4509 11.9262 89.1043 11.4774 91.0475 11.4774C92.8657 11.4774 94.4509 11.8751 95.8033 12.6705C97.1555 13.466 98.2067 14.6024 98.9567 16.0796C99.7067 17.5455 100.082 19.2955 100.082 21.3297V38.0001H92.8203V22.6251C92.8317 21.0229 92.4225 19.7728 91.5931 18.8751C90.7635 17.966 89.6215 17.5114 88.1669 17.5114C87.1897 17.5114 86.3259 17.7217 85.5759 18.1421C84.8373 18.5626 84.2579 19.1762 83.8373 19.983C83.4283 20.7785 83.2181 21.7387 83.2067 22.8637ZM112.384 30.4661L112.401 21.7557H113.458L121.844 11.8183H130.18L118.913 24.9773H117.191L112.384 30.4661ZM105.805 38.0001V3.09099H113.066V38.0001H105.805ZM122.168 38.0001L114.464 26.5967L119.305 21.4661L130.674 38.0001H122.168ZM137.986 38.4433C136.861 38.4433 135.895 38.0455 135.089 37.2501C134.293 36.4433 133.895 35.4773 133.895 34.3523C133.895 33.2387 134.293 32.2841 135.089 31.4887C135.895 30.6933 136.861 30.2955 137.986 30.2955C139.077 30.2955 140.032 30.6933 140.85 31.4887C141.668 32.2841 142.077 33.2387 142.077 34.3523C142.077 35.1023 141.884 35.7899 141.498 36.4149C141.123 37.0285 140.628 37.5229 140.015 37.8979C139.401 38.2615 138.725 38.4433 137.986 38.4433Z" fill="#1A6140"/>
</svg>
