<svg width="24" height="24" viewBox="0 0 24 24" fill="none" xmlns="http://www.w3.org/2000/svg">
<path d="M21.3995 12.95L18.6195 14.34C18.4295 14.44 18.1995 14.4 18.0395 14.25L16.1695 12.38C15.9695 12.18 15.9695 11.87 16.1695 11.67L18.0695 9.77002C18.2195 9.62002 18.4595 9.58002 18.6495 9.68002L21.3995 11.06C22.1895 11.44 22.1895 12.56 21.3995 12.95Z" fill="white"/>
<path d="M16.299 8.48996C16.609 8.63996 16.669 9.04998 16.429 9.28998L14.759 10.96L14.049 11.67C13.849 11.87 13.539 11.87 13.339 11.67L6.199 4.52997C5.799 4.12997 6.269 3.47998 6.779 3.72998L16.299 8.48996Z" fill="white"/>
<path d="M2 20.1501V3.48008C2 3.04008 2.53 2.81007 2.85 3.12007L11.62 11.6301C11.83 11.8301 11.82 12.1601 11.61 12.3601L2.84 20.5201C2.52 20.8201 2 20.5901 2 20.1501Z" fill="white"/>
<path d="M16.2705 15.52L6.88056 20.22C6.37056 20.47 5.90056 19.82 6.30056 19.42L13.3505 12.37C13.5505 12.17 13.8605 12.17 14.0605 12.37L16.4105 14.72C16.6405 14.96 16.5705 15.37 16.2705 15.52Z" fill="white"/>
</svg>
