<svg width="40" height="40" viewBox="0 0 40 40" fill="none" xmlns="http://www.w3.org/2000/svg">
<path d="M20.9993 19.9999L14.4993 13.4999C14.1938 13.1944 14.041 12.8055 14.041 12.3333C14.041 11.861 14.1938 11.4721 14.4993 11.1666C14.8049 10.861 15.1938 10.7083 15.666 10.7083C16.1382 10.7083 16.5271 10.861 16.8327 11.1666L24.4993 18.8333C24.666 18.9999 24.7843 19.1805 24.8543 19.3749C24.9243 19.5694 24.9588 19.7777 24.9577 19.9999C24.9566 20.2221 24.9221 20.4305 24.8543 20.6249C24.7866 20.8194 24.6682 20.9999 24.4993 21.1666L16.8327 28.8332C16.5271 29.1388 16.1382 29.2916 15.666 29.2916C15.1938 29.2916 14.8049 29.1388 14.4993 28.8332C14.1938 28.5277 14.041 28.1388 14.041 27.6666C14.041 27.1944 14.1938 26.8055 14.4993 26.4999L20.9993 19.9999Z" fill="white"/>
</svg>
