<svg width="40" height="40" viewBox="0 0 40 40" fill="none" xmlns="http://www.w3.org/2000/svg">
<path d="M17.9994 19.9999L24.4994 26.4999C24.8049 26.8055 24.9577 27.1944 24.9577 27.6666C24.9577 28.1388 24.8049 28.5277 24.4994 28.8332C24.1938 29.1388 23.8049 29.2916 23.3327 29.2916C22.8605 29.2916 22.4716 29.1388 22.166 28.8332L14.4994 21.1666C14.3327 20.9999 14.2149 20.8194 14.146 20.6249C14.0772 20.4305 14.0422 20.2221 14.041 19.9999C14.0399 19.7777 14.0749 19.5694 14.146 19.3749C14.2172 19.1805 14.3349 18.9999 14.4994 18.8333L22.166 11.1666C22.4716 10.861 22.8605 10.7083 23.3327 10.7083C23.8049 10.7083 24.1938 10.861 24.4994 11.1666C24.8049 11.4721 24.9577 11.861 24.9577 12.3333C24.9577 12.8055 24.8049 13.1944 24.4994 13.4999L17.9994 19.9999Z" fill="white"/>
</svg>
