<svg width="40" height="40" viewBox="0 0 40 40" fill="none" xmlns="http://www.w3.org/2000/svg">
<path d="M20.415 23.2714L10.4175 33.2689C10.0435 33.643 9.56738 33.83 8.9893 33.83C8.41121 33.83 7.93514 33.643 7.56108 33.2689C7.18703 32.8949 7 32.4188 7 31.8407C7 31.2626 7.18703 30.7865 7.56108 30.4125L17.5586 20.415L7.56108 10.4175C7.18703 10.0435 7 9.56738 7 8.9893C7 8.41121 7.18703 7.93514 7.56108 7.56108C7.93514 7.18703 8.41121 7 8.9893 7C9.56738 7 10.0435 7.18703 10.4175 7.56108L20.415 17.5586L30.4125 7.56108C30.7865 7.18703 31.2626 7 31.8407 7C32.4188 7 32.8949 7.18703 33.2689 7.56108C33.643 7.93514 33.83 8.41121 33.83 8.9893C33.83 9.56738 33.643 10.0435 33.2689 10.4175L23.2714 20.415L33.2689 30.4125C33.643 30.7865 33.83 31.2626 33.83 31.8407C33.83 32.4188 33.643 32.8949 33.2689 33.2689C32.8949 33.643 32.4188 33.83 31.8407 33.83C31.2626 33.83 30.7865 33.643 30.4125 33.2689L20.415 23.2714Z" fill="white"/>
</svg>
