<svg width="24" height="24" viewBox="0 0 24 24" fill="none" xmlns="http://www.w3.org/2000/svg">
<path d="M7.34 4.0306C7.51938 3.93276 7.71 4.08329 7.71 4.28762V17.8434C7.71 18.0666 7.55758 18.2554 7.3602 18.3597C7.35343 18.3633 7.34669 18.3669 7.34 18.3706L4.99 19.7106C3.35 20.6506 2 19.8706 2 17.9706V8.2406C2 7.6106 2.45 6.8306 3.01 6.5106L7.34 4.0306Z" fill="white"/>
<path d="M14.4328 6.56286C14.6031 6.64721 14.7109 6.82085 14.7109 7.01092V20.1641C14.7109 20.5326 14.3259 20.7745 13.9939 20.6145L9.74394 18.5669C9.57092 18.4836 9.46094 18.3085 9.46094 18.1165V4.90615C9.46094 4.53529 9.85054 4.2935 10.1828 4.45809L14.4328 6.56286Z" fill="white"/>
<path d="M21.7109 6.95027V16.6802C21.7109 17.3102 21.2609 18.0902 20.7009 18.4102L17.2095 20.4112C16.8762 20.6022 16.4609 20.3616 16.4609 19.9774V6.79059C16.4609 6.61108 16.5571 6.44534 16.713 6.35635L18.7209 5.21027C20.3609 4.27027 21.7109 5.05027 21.7109 6.95027Z" fill="white"/>
</svg>
