<svg width="28" height="28" viewBox="0 0 28 28" fill="none" xmlns="http://www.w3.org/2000/svg">
<path d="M14.0039 13.65C14.6785 13.65 15.2549 13.4098 15.7332 12.9294C16.2116 12.449 16.4507 11.8715 16.4507 11.1969C16.4507 10.5223 16.2105 9.94583 15.7301 9.4675C15.2497 8.98917 14.6722 8.75 13.9976 8.75C13.323 8.75 12.7466 8.9902 12.2682 9.47061C11.7899 9.951 11.5507 10.5285 11.5507 11.2031C11.5507 11.8777 11.791 12.4542 12.2714 12.9325C12.7518 13.4108 13.3293 13.65 14.0039 13.65ZM14.0007 25.235C17.1041 22.4117 19.3966 19.8508 20.8782 17.5525C22.3599 15.2542 23.1007 13.23 23.1007 11.48C23.1007 8.73157 22.2223 6.48112 20.4655 4.72867C18.7087 2.97622 16.5538 2.1 14.0007 2.1C11.4477 2.1 9.29279 2.97622 7.536 4.72867C5.77919 6.48112 4.90078 8.73157 4.90078 11.48C4.90078 13.23 5.65911 15.2542 7.17578 17.5525C8.69245 19.8508 10.9674 22.4117 14.0007 25.235ZM14.0007 28C10.2441 24.8033 7.43828 21.8342 5.58328 19.0925C3.72828 16.3508 2.80078 13.8133 2.80078 11.48C2.80078 7.98 3.92661 5.19167 6.17828 3.115C8.42995 1.03833 11.0374 0 14.0007 0C16.9641 0 19.5716 1.03833 21.8232 3.115C24.0749 5.19167 25.2007 7.98 25.2007 11.48C25.2007 13.8133 24.2732 16.3508 22.4182 19.0925C20.5632 21.8342 17.7574 24.8033 14.0007 28Z" fill="white"/>
</svg>
