<svg width="28" height="28" viewBox="0 0 28 28" fill="none" xmlns="http://www.w3.org/2000/svg">
<path d="M25.6674 10.4999V17.4999C25.6674 20.4166 25.084 22.4582 23.7774 23.7766L16.334 16.3332L25.3524 7.31494C25.5624 8.23661 25.6674 9.2866 25.6674 10.4999Z" stroke="white" stroke-width="1.5" stroke-linecap="round" stroke-linejoin="round"/>
<path d="M25.3523 7.31492L7.31563 25.3516C3.80396 24.5466 2.33398 22.1199 2.33398 17.4999V10.4999C2.33398 4.66659 4.66731 2.33325 10.5006 2.33325H17.5006C22.1206 2.33325 24.5473 3.80326 25.3523 7.31492Z" stroke="white" stroke-width="1.5" stroke-linecap="round" stroke-linejoin="round"/>
<path d="M23.7762 23.7767C22.4578 25.0833 20.4162 25.6667 17.4995 25.6667H10.4995C9.28613 25.6667 8.23611 25.5617 7.31445 25.3517L16.3328 16.3333L23.7762 23.7767Z" stroke="white" stroke-width="1.5" stroke-linecap="round" stroke-linejoin="round"/>
<path d="M7.2808 9.31009C8.07413 5.89175 13.2075 5.89175 14.0008 9.31009C14.4558 11.3168 13.1958 13.0201 12.0874 14.0701C11.2824 14.8401 10.0108 14.8401 9.19415 14.0701C8.08581 13.0201 6.81413 11.3168 7.2808 9.31009Z" stroke="white" stroke-width="1.5"/>
<path d="M10.6113 10.1499H10.6218" stroke="white" stroke-width="2" stroke-linecap="round" stroke-linejoin="round"/>
</svg>
