<svg width="40" height="40" viewBox="0 0 40 40" fill="none" xmlns="http://www.w3.org/2000/svg">
<path d="M3.2439 33.8293C2.5691 33.8293 2.02642 33.612 1.61585 33.1776C1.20529 32.7431 1 32.1984 1 31.5434C1 30.8885 1.20529 30.3578 1.61585 29.9512C2.02642 29.5447 2.5691 29.3415 3.2439 29.3415H35.9756C36.6187 29.3415 37.1535 29.5475 37.5799 29.9597C38.0063 30.372 38.2195 30.9056 38.2195 31.5606C38.2195 32.2155 38.0063 32.7574 37.5799 33.1861C37.1535 33.6149 36.6187 33.8293 35.9756 33.8293H3.2439ZM3.2439 22.6585C2.5691 22.6585 2.02642 22.4413 1.61585 22.0068C1.20529 21.5724 1 21.0439 1 20.4215C1 19.7665 1.20529 19.2358 1.61585 18.8293C2.02642 18.4227 2.5691 18.2195 3.2439 18.2195H35.9756C36.6187 18.2195 37.1535 18.4256 37.5799 18.8378C38.0063 19.25 38.2195 19.7836 38.2195 20.4386C38.2195 21.0611 38.0063 21.5866 37.5799 22.0154C37.1535 22.4442 36.6187 22.6585 35.9756 22.6585H3.2439ZM3.2439 11.4878C2.5691 11.4878 2.02642 11.2787 1.61585 10.8605C1.20529 10.4423 1 9.88946 1 9.20195C1 8.57951 1.20529 8.05691 1.61585 7.63415C2.02642 7.21139 2.5691 7 3.2439 7H35.9756C36.6187 7 37.1535 7.21422 37.5799 7.64268C38.0063 8.07117 38.2195 8.59663 38.2195 9.21907C38.2195 9.90659 38.0063 10.4566 37.5799 10.8691C37.1535 11.2816 36.6187 11.4878 35.9756 11.4878H3.2439Z" fill="#404040"/>
</svg>
