<svg width="22" height="22" viewBox="0 0 22 22" fill="none" xmlns="http://www.w3.org/2000/svg">
<path d="M18.8068 6.99704C18.8198 7.17204 18.8198 7.34604 18.8198 7.52004C18.8198 12.845 14.7668 18.981 7.35983 18.981C5.07783 18.981 2.95783 18.32 1.17383 17.172C1.49783 17.209 1.80983 17.222 2.14683 17.222C4.02983 17.222 5.76283 16.586 7.14783 15.501C5.37683 15.464 3.89283 14.304 3.38083 12.708C3.62983 12.745 3.87983 12.77 4.14183 12.77C4.50283 12.77 4.86583 12.72 5.20283 12.633C3.35583 12.259 1.97283 10.638 1.97283 8.68004V8.63004C2.50983 8.92904 3.13283 9.11604 3.79283 9.14104C2.70783 8.41904 1.99683 7.18404 1.99683 5.78704C1.99683 5.03904 2.19583 4.35304 2.54483 3.75504C4.52783 6.19804 7.50883 7.79504 10.8508 7.97004C10.7888 7.67004 10.7508 7.35904 10.7508 7.04704C10.7508 4.82704 12.5468 3.01904 14.7788 3.01904C15.9388 3.01904 16.9858 3.50504 17.7218 4.29104C18.6318 4.11604 19.5038 3.77904 20.2778 3.31804C19.9788 4.25304 19.3418 5.03904 18.5068 5.53804C19.3178 5.45004 20.1038 5.22604 20.8258 4.91404C20.2778 5.71204 19.5928 6.42304 18.8068 6.99704Z" fill="#1A6140"/>
</svg>
